<svg width="20" height="20" viewBox="0 0 20 20" fill="none" xmlns="http://www.w3.org/2000/svg">
<path d="M10.0001 15.8334C13.2217 15.8334 15.8334 13.2217 15.8334 10.0001C15.8334 6.77842 13.2217 4.16675 10.0001 4.16675C6.77842 4.16675 4.16675 6.77842 4.16675 10.0001C4.16675 13.2217 6.77842 15.8334 10.0001 15.8334Z" fill="white"/>
<path d="M9.99992 19.1333C9.54158 19.1333 9.16658 18.7916 9.16658 18.3333V18.2666C9.16658 17.8083 9.54158 17.4333 9.99992 17.4333C10.4583 17.4333 10.8333 17.8083 10.8333 18.2666C10.8333 18.7249 10.4583 19.1333 9.99992 19.1333ZM15.9499 16.7833C15.7333 16.7833 15.5249 16.6999 15.3583 16.5416L15.2499 16.4333C14.9249 16.1083 14.9249 15.5833 15.2499 15.2583C15.5749 14.9333 16.0999 14.9333 16.4249 15.2583L16.5333 15.3666C16.8583 15.6916 16.8583 16.2166 16.5333 16.5416C16.3749 16.6999 16.1666 16.7833 15.9499 16.7833ZM4.04992 16.7833C3.83325 16.7833 3.62492 16.6999 3.45825 16.5416C3.13325 16.2166 3.13325 15.6916 3.45825 15.3666L3.56659 15.2583C3.89159 14.9333 4.41659 14.9333 4.74159 15.2583C5.06659 15.5833 5.06659 16.1083 4.74159 16.4333L4.63325 16.5416C4.47492 16.6999 4.25825 16.7833 4.04992 16.7833ZM18.3333 10.8333H18.2666C17.8083 10.8333 17.4333 10.4583 17.4333 9.99992C17.4333 9.54158 17.8083 9.16658 18.2666 9.16658C18.7249 9.16658 19.1333 9.54158 19.1333 9.99992C19.1333 10.4583 18.7916 10.8333 18.3333 10.8333ZM1.73325 10.8333H1.66659C1.20825 10.8333 0.833252 10.4583 0.833252 9.99992C0.833252 9.54158 1.20825 9.16658 1.66659 9.16658C2.12492 9.16658 2.53325 9.54158 2.53325 9.99992C2.53325 10.4583 2.19159 10.8333 1.73325 10.8333ZM15.8416 4.99158C15.6249 4.99158 15.4166 4.90825 15.2499 4.74992C14.9249 4.42492 14.9249 3.89992 15.2499 3.57492L15.3583 3.46659C15.6833 3.14159 16.2083 3.14159 16.5333 3.46659C16.8583 3.79158 16.8583 4.31659 16.5333 4.64159L16.4249 4.74992C16.2666 4.90825 16.0583 4.99158 15.8416 4.99158ZM4.15825 4.99158C3.94159 4.99158 3.73325 4.90825 3.56659 4.74992L3.45825 4.63325C3.13325 4.30825 3.13325 3.78325 3.45825 3.45825C3.78325 3.13325 4.30825 3.13325 4.63325 3.45825L4.74159 3.56659C5.06659 3.89159 5.06659 4.41659 4.74159 4.74159C4.58325 4.90825 4.36659 4.99158 4.15825 4.99158ZM9.99992 2.53325C9.54158 2.53325 9.16658 2.19159 9.16658 1.73325V1.66659C9.16658 1.20825 9.54158 0.833252 9.99992 0.833252C10.4583 0.833252 10.8333 1.20825 10.8333 1.66659C10.8333 2.12492 10.4583 2.53325 9.99992 2.53325Z" fill="white"/>
</svg>
