<svg width="10" height="10" viewBox="0 0 10 10" fill="none" xmlns="http://www.w3.org/2000/svg">
<g clip-path="url(#clip0_112_4797)">
<path d="M7.45961 9.84016L7.78945 9.5126C7.89246 9.40951 7.94921 9.27235 7.94921 9.12576C7.94921 8.97926 7.89246 8.84194 7.78945 8.73885L4.05268 5.00224L7.7936 1.26131C7.89661 1.15838 7.95328 1.02107 7.95328 0.87456C7.95328 0.728055 7.89661 0.590655 7.7936 0.487646L7.46579 0.160001C7.25262 -0.0533338 6.90538 -0.0533338 6.69221 0.160001L2.22217 4.61402C2.11924 4.71695 2.04672 4.8541 2.04672 5.00191L2.04672 5.00362C2.04672 5.1502 2.11933 5.28736 2.22217 5.39029L6.6801 9.84016C6.78302 9.94325 6.92433 9.99984 7.07083 10C7.21742 10 7.35677 9.94325 7.45961 9.84016Z" fill="white"/>
</g>
<defs>
<clipPath id="clip0_112_4797">
<rect width="10" height="10" fill="white" transform="translate(10) rotate(90)"/>
</clipPath>
</defs>
</svg>
