<svg width="10" height="6" viewBox="0 0 10 6" fill="none" xmlns="http://www.w3.org/2000/svg">
<path d="M0.15984 5.45971L0.487404 5.78955C0.590494 5.89256 0.727649 5.9493 0.874235 5.9493C1.02074 5.9493 1.15806 5.89256 1.26115 5.78955L4.99776 2.05277L8.73869 5.79369C8.84162 5.8967 8.97893 5.95337 9.12544 5.95337C9.27195 5.95337 9.40934 5.8967 9.51235 5.79369L9.84 5.46589C10.0533 5.25271 10.0533 4.90547 9.84 4.6923L5.38598 0.222264C5.28305 0.119337 5.1459 0.0468153 4.99809 0.0468154L4.99638 0.0468154C4.8498 0.0468154 4.71264 0.119418 4.60971 0.222264L0.15984 4.68019C0.0567492 4.78312 0.000163942 4.92442 8.76528e-07 5.07092C8.89343e-07 5.21751 0.0567493 5.35686 0.15984 5.45971Z" fill="#7E8083"/>
</svg>
