<svg width="16" height="16" viewBox="0 0 16 16" fill="none" xmlns="http://www.w3.org/2000/svg">
<path d="M5.53317 10.6667H7.13317C8.4665 10.6667 8.99984 10.1334 8.99984 8.80004V7.20004C8.99984 5.86671 8.4665 5.33337 7.13317 5.33337H5.53317C4.19984 5.33337 3.6665 5.86671 3.6665 7.20004V8.80004C3.6665 10.1334 4.19984 10.6667 5.53317 10.6667Z" stroke="#1E293B" stroke-linecap="round" stroke-linejoin="round"/>
<path d="M11.3335 13.3333H4.66683C2.00016 13.3333 1.3335 12.6666 1.3335 9.99996V5.99996C1.3335 3.33329 2.00016 2.66663 4.66683 2.66663H11.3335C14.0002 2.66663 14.6668 3.33329 14.6668 5.99996V9.99996C14.6668 12.6666 14.0002 13.3333 11.3335 13.3333Z" stroke="#1E293B" stroke-linecap="round" stroke-linejoin="round"/>
</svg>
