<svg width="14" height="10" viewBox="0 0 14 10" fill="none" xmlns="http://www.w3.org/2000/svg">
<path d="M13.7762 1.55832L13.3176 1.09654C13.1733 0.952327 12.9813 0.872879 12.7761 0.872879C12.571 0.872879 12.3787 0.952327 12.2344 1.09654L7.00313 6.32803L1.76584 1.09073C1.62174 0.946522 1.42949 0.867188 1.22438 0.867188C1.01928 0.867188 0.826917 0.946522 0.682705 1.09073L0.224002 1.54966C-0.0746673 1.84811 -0.0746673 2.33424 0.224002 2.63268L6.45963 8.89073C6.60373 9.03483 6.79575 9.13636 7.00267 9.13636H7.00506C7.21029 9.13636 7.4023 9.03472 7.5464 8.89073L13.7762 2.64964C13.9206 2.50554 13.9998 2.30772 14 2.10261C14 1.89739 13.9206 1.7023 13.7762 1.55832Z" fill="url(#paint0_linear_405_35627)"/>
<defs>
<linearGradient id="paint0_linear_405_35627" x1="-1.05626e-07" y1="1.60829" x2="7.58471" y2="13.2986" gradientUnits="userSpaceOnUse">
<stop stop-color="#4F46E5"/>
<stop offset="1" stop-color="#6366F1"/>
</linearGradient>
</defs>
</svg>
