<svg width="14" height="14" viewBox="0 0 14 14" fill="none" xmlns="http://www.w3.org/2000/svg">
<path d="M13.7762 3.55661L13.3176 3.09483C13.1733 2.95062 12.9813 2.87117 12.7761 2.87117C12.571 2.87117 12.3787 2.95062 12.2344 3.09483L7.00313 8.32632L1.76584 3.08903C1.62174 2.94481 1.42949 2.86548 1.22438 2.86548C1.01928 2.86548 0.826917 2.94481 0.682705 3.08903L0.224002 3.54796C-0.0746673 3.8464 -0.0746673 4.33253 0.224002 4.63097L6.45963 10.889C6.60373 11.0331 6.79575 11.1347 7.00267 11.1347H7.00506C7.21029 11.1347 7.4023 11.033 7.5464 10.889L13.7762 4.64793C13.9206 4.50383 13.9998 4.30601 14 4.1009C14 3.89568 13.9206 3.70059 13.7762 3.55661Z" fill="#A8ACB3"/>
</svg>
