<svg width="16" height="16" viewBox="0 0 16 16" fill="none" xmlns="http://www.w3.org/2000/svg">
<path d="M6.93916 6.94141C6.6579 7.22277 6.49993 7.60434 6.5 8.00217C6.50007 8.40001 6.65818 8.78152 6.93954 9.06278C7.2209 9.34404 7.60247 9.50202 8.0003 9.50195C8.39814 9.50187 8.77965 9.34377 9.06091 9.06241" stroke="#1E293B" stroke-width="1.5" stroke-linecap="round" stroke-linejoin="round"/>
<path d="M11.5107 11.5048C10.4587 12.163 9.24099 12.5082 8 12.5C5.3 12.5 3.05 11 1.25 8.00002C2.204 6.41002 3.284 5.24152 4.49 4.49452M6.635 3.63502C7.08428 3.54407 7.54161 3.49884 8 3.50002C10.7 3.50002 12.95 5.00002 14.75 8.00002C14.2505 8.83252 13.7157 9.55027 13.1465 10.1525" stroke="#1E293B" stroke-width="1.5" stroke-linecap="round" stroke-linejoin="round"/>
<path d="M1.25 1.25L14.75 14.75" stroke="#1E293B" stroke-width="1.5" stroke-linecap="round" stroke-linejoin="round"/>
</svg>
