<svg width="16" height="16" viewBox="0 0 16 16" fill="none" xmlns="http://www.w3.org/2000/svg">
<path d="M11.3335 13.6667H4.66683C2.66683 13.6667 1.3335 12.6667 1.3335 10.3333V5.66666C1.3335 3.33333 2.66683 2.33333 4.66683 2.33333H11.3335C13.3335 2.33333 14.6668 3.33333 14.6668 5.66666V10.3333C14.6668 12.6667 13.3335 13.6667 11.3335 13.6667Z" stroke="#1E293B" stroke-miterlimit="10" stroke-linecap="round" stroke-linejoin="round"/>
<path d="M8 10C9.10457 10 10 9.10457 10 8C10 6.89543 9.10457 6 8 6C6.89543 6 6 6.89543 6 8C6 9.10457 6.89543 10 8 10Z" stroke="#1E293B" stroke-miterlimit="10" stroke-linecap="round" stroke-linejoin="round"/>
<path d="M12.6665 4.66667H10.6665" stroke="#1E293B" stroke-miterlimit="10" stroke-linecap="round" stroke-linejoin="round"/>
<path d="M5.3335 11.3333H3.3335" stroke="#1E293B" stroke-miterlimit="10" stroke-linecap="round" stroke-linejoin="round"/>
</svg>
