<svg width="36" height="36" viewBox="0 0 36 36" fill="none" xmlns="http://www.w3.org/2000/svg">
<path d="M12.855 22.9049L22.6649 13.095" stroke="white" stroke-width="1.5" stroke-linecap="round" stroke-linejoin="round"/>
<path d="M13.47 15.555C14.489 15.555 15.315 14.729 15.315 13.71C15.315 12.691 14.489 11.865 13.47 11.865C12.4511 11.865 11.625 12.691 11.625 13.71C11.625 14.729 12.4511 15.555 13.47 15.555Z" stroke="white" stroke-width="1.5" stroke-linecap="round" stroke-linejoin="round"/>
<path d="M23.28 24.1351C24.299 24.1351 25.125 23.309 25.125 22.29C25.125 21.2711 24.299 20.4451 23.28 20.4451C22.2611 20.4451 21.4351 21.2711 21.4351 22.29C21.4351 23.309 22.2611 24.1351 23.28 24.1351Z" stroke="white" stroke-width="1.5" stroke-linecap="round" stroke-linejoin="round"/>
<path d="M18 33C26.2843 33 33 26.2843 33 18C33 9.71573 26.2843 3 18 3C9.71573 3 3 9.71573 3 18C3 26.2843 9.71573 33 18 33Z" stroke="white" stroke-width="1.5" stroke-linecap="round" stroke-linejoin="round"/>
</svg>
