<svg width="20" height="20" viewBox="0 0 20 20" fill="none" xmlns="http://www.w3.org/2000/svg">
<path d="M18.333 1.66669H16.883C15.983 1.66669 15.2747 2.44169 15.3497 3.33335L16.0413 11.6333C16.158 12.9917 15.083 14.1583 13.7163 14.1583H4.84134C3.64134 14.1583 2.59134 13.175 2.49967 11.9834L2.04968 5.73336C1.94968 4.35002 2.99968 3.22502 4.39134 3.22502H15.1497" stroke="#292D32" stroke-width="1.5" stroke-miterlimit="10" stroke-linecap="round" stroke-linejoin="round"/>
<path d="M6.45833 18.3333C5.88304 18.3333 5.41667 17.867 5.41667 17.2917C5.41667 16.7164 5.88304 16.25 6.45833 16.25C7.03363 16.25 7.5 16.7164 7.5 17.2917C7.5 17.867 7.03363 18.3333 6.45833 18.3333Z" stroke="#292D32" stroke-width="1.5" stroke-miterlimit="10" stroke-linecap="round" stroke-linejoin="round"/>
<path d="M13.1253 18.3333C12.55 18.3333 12.0837 17.867 12.0837 17.2917C12.0837 16.7164 12.55 16.25 13.1253 16.25C13.7006 16.25 14.167 16.7164 14.167 17.2917C14.167 17.867 13.7006 18.3333 13.1253 18.3333Z" stroke="#292D32" stroke-width="1.5" stroke-miterlimit="10" stroke-linecap="round" stroke-linejoin="round"/>
<path d="M12.5 6.66669H2.5" stroke="#292D32" stroke-width="1.5" stroke-miterlimit="10" stroke-linecap="round" stroke-linejoin="round"/>
</svg>
