<svg width="56" height="56" viewBox="0 0 56 56" fill="none" xmlns="http://www.w3.org/2000/svg">
<path d="M39.6667 31.2666V38.2666C39.6667 47.5999 35.9333 51.3333 26.6 51.3333H17.7334C8.40002 51.3333 4.66669 47.5999 4.66669 38.2666V29.3999C4.66669 20.0666 8.40002 16.3333 17.7334 16.3333H24.7334" stroke="#A8ACB3" stroke-width="4" stroke-linecap="round" stroke-linejoin="round"/>
<path d="M39.6667 31.2666H32.2C26.6 31.2666 24.7333 29.3999 24.7333 23.7999V16.3333L39.6667 31.2666Z" stroke="#A8ACB3" stroke-width="4" stroke-linecap="round" stroke-linejoin="round"/>
<path d="M27.0667 4.66675H36.4" stroke="#A8ACB3" stroke-width="4" stroke-linecap="round" stroke-linejoin="round"/>
<path d="M16.3333 11.6667C16.3333 7.79341 19.46 4.66675 23.3333 4.66675H29.4466" stroke="#A8ACB3" stroke-width="4" stroke-linecap="round" stroke-linejoin="round"/>
<path d="M51.3333 18.6667V33.1101C51.3333 36.7267 48.3933 39.6667 44.7767 39.6667" stroke="#A8ACB3" stroke-width="4" stroke-linecap="round" stroke-linejoin="round"/>
<path d="M51.3333 18.6667H44.3333C39.0833 18.6667 37.3333 16.9167 37.3333 11.6667V4.66675L51.3333 18.6667Z" stroke="#A8ACB3" stroke-width="4" stroke-linecap="round" stroke-linejoin="round"/>
</svg>
