<svg width="16" height="16" viewBox="0 0 16 16" fill="none" xmlns="http://www.w3.org/2000/svg">
<path d="M2.00684 7.48001V10.4733C2.00684 13.4667 3.20684 14.6667 6.20017 14.6667H9.7935C12.7868 14.6667 13.9868 13.4667 13.9868 10.4733V7.48001" stroke="#1E293B" stroke-linecap="round" stroke-linejoin="round"/>
<path d="M7.99999 8.00001C9.21999 8.00001 10.12 7.00668 9.99999 5.78668L9.55999 1.33334H6.44666L5.99999 5.78668C5.87999 7.00668 6.77999 8.00001 7.99999 8.00001Z" stroke="#1E293B" stroke-linecap="round" stroke-linejoin="round"/>
<path d="M12.2065 8.00001C13.5532 8.00001 14.5399 6.90668 14.4065 5.56668L14.2199 3.73334C13.9799 2.00001 13.3132 1.33334 11.5665 1.33334H9.5332L9.99987 6.00668C10.1132 7.10668 11.1065 8.00001 12.2065 8.00001Z" stroke="#1E293B" stroke-linecap="round" stroke-linejoin="round"/>
<path d="M3.75992 8.00001C4.85992 8.00001 5.85325 7.10668 5.95992 6.00668L6.10659 4.53334L6.42659 1.33334H4.39325C2.64659 1.33334 1.97992 2.00001 1.73992 3.73334L1.55992 5.56668C1.42659 6.90668 2.41325 8.00001 3.75992 8.00001Z" stroke="#1E293B" stroke-linecap="round" stroke-linejoin="round"/>
<path d="M8.00016 11.3333C6.88683 11.3333 6.3335 11.8867 6.3335 13V14.6667H9.66683V13C9.66683 11.8867 9.1135 11.3333 8.00016 11.3333Z" stroke="#1E293B" stroke-linecap="round" stroke-linejoin="round"/>
</svg>
