<svg width="10" height="6" viewBox="0 0 10 6" fill="none" xmlns="http://www.w3.org/2000/svg">
<path d="M9.84016 0.540294L9.5126 0.210453C9.40951 0.107444 9.27235 0.050696 9.12577 0.050696C8.97926 0.050696 8.84194 0.107444 8.73885 0.210453L5.00224 3.94723L1.26131 0.206307C1.15838 0.103298 1.02107 0.0466309 0.87456 0.0466309C0.728055 0.0466309 0.590655 0.103298 0.487646 0.206307L0.160001 0.534115C-0.0533338 0.747287 -0.0533338 1.09453 0.160001 1.3077L4.61402 5.77774C4.71695 5.88066 4.8541 5.95318 5.00191 5.95318H5.00362C5.1502 5.95318 5.28736 5.88058 5.39029 5.77774L9.84016 1.31981C9.94325 1.21688 9.99984 1.07558 10 0.929077C10 0.782491 9.94325 0.64314 9.84016 0.540294Z" fill="#7E8083"/>
</svg>
