<svg width="16" height="16" viewBox="0 0 16 16" fill="none" xmlns="http://www.w3.org/2000/svg">
<path d="M2 6.07328V9.91995C2 11.3333 2 11.3333 3.33333 12.2333L7 14.3533C7.55333 14.6733 8.45333 14.6733 9 14.3533L12.6667 12.2333C14 11.3333 14 11.3333 14 9.92662V6.07328C14 4.66662 14 4.66662 12.6667 3.76662L9 1.64662C8.45333 1.32662 7.55333 1.32662 7 1.64662L3.33333 3.76662C2 4.66662 2 4.66662 2 6.07328Z" stroke="#1E293B" stroke-linecap="round" stroke-linejoin="round"/>
<path d="M8 10C9.10457 10 10 9.10457 10 8C10 6.89543 9.10457 6 8 6C6.89543 6 6 6.89543 6 8C6 9.10457 6.89543 10 8 10Z" stroke="#1E293B" stroke-linecap="round" stroke-linejoin="round"/>
</svg>
