<svg width="18" height="18" viewBox="0 0 18 18" fill="none" xmlns="http://www.w3.org/2000/svg">
<path d="M5.33398 7.16536C5.33398 6.67913 5.52714 6.21282 5.87096 5.869C6.21477 5.52519 6.68109 5.33203 7.16732 5.33203H14.5007C14.9869 5.33203 15.4532 5.52519 15.797 5.869C16.1408 6.21282 16.334 6.67913 16.334 7.16536V14.4987C16.334 14.9849 16.1408 15.4512 15.797 15.7951C15.4532 16.1389 14.9869 16.332 14.5007 16.332H7.16732C6.68109 16.332 6.21477 16.1389 5.87096 15.7951C5.52714 15.4512 5.33398 14.9849 5.33398 14.4987V7.16536Z" stroke="#4F46E5" stroke-width="1.5" stroke-linecap="round" stroke-linejoin="round"/>
<path d="M12.666 5.33464V3.5013C12.666 3.01507 12.4729 2.54876 12.129 2.20494C11.7852 1.86112 11.3189 1.66797 10.8327 1.66797H3.49935C3.01312 1.66797 2.5468 1.86112 2.20299 2.20494C1.85917 2.54876 1.66602 3.01507 1.66602 3.5013V10.8346C1.66602 11.3209 1.85917 11.7872 2.20299 12.131C2.5468 12.4748 3.01312 12.668 3.49935 12.668H5.33268" stroke="#4F46E5" stroke-width="1.5" stroke-linecap="round" stroke-linejoin="round"/>
</svg>
