<svg width="8" height="8" viewBox="0 0 8 8" fill="none" xmlns="http://www.w3.org/2000/svg">
<path d="M7.87213 2.03214L7.61008 1.76827C7.52761 1.68586 7.41788 1.64046 7.30061 1.64046C7.18341 1.64046 7.07355 1.68586 6.99108 1.76827L4.00179 4.75769L1.00905 1.76495C0.926707 1.68254 0.816852 1.63721 0.699648 1.63721C0.582444 1.63721 0.472524 1.68254 0.390117 1.76495L0.128001 2.02719C-0.042667 2.19773 -0.042667 2.47552 0.128001 2.64606L3.69122 6.22209C3.77356 6.30443 3.88328 6.36245 4.00153 6.36245H4.00289C4.12016 6.36245 4.22989 6.30437 4.31223 6.22209L7.87213 2.65575C7.9546 2.57341 7.99987 2.46037 8 2.34316C8 2.22589 7.9546 2.11441 7.87213 2.03214Z" fill="#1E293B"/>
</svg>
