<svg width="36" height="36" viewBox="0 0 36 36" fill="none" xmlns="http://www.w3.org/2000/svg">
<path d="M13.5 33H22.5C30 33 33 30 33 22.5V13.5C33 6 30 3 22.5 3H13.5C6 3 3 6 3 13.5V22.5C3 30 6 33 13.5 33Z" stroke="white" stroke-width="1.5" stroke-linecap="round" stroke-linejoin="round"/>
<path d="M12 28.5H24C27 28.5 28.5 27 28.5 24V12C28.5 9 27 7.5 24 7.5H12C9 7.5 7.5 9 7.5 12V24C7.5 27 9 28.5 12 28.5Z" stroke="white" stroke-width="1.5" stroke-linecap="round" stroke-linejoin="round"/>
<path d="M7.5 14.25H11.22C13.29 14.25 14.97 15.93 14.97 18C14.97 20.07 13.29 21.75 11.22 21.75H7.5" stroke="white" stroke-width="1.5" stroke-linecap="round" stroke-linejoin="round"/>
<path d="M28.5 14.985H24" stroke="white" stroke-width="1.5" stroke-linecap="round" stroke-linejoin="round"/>
<path d="M28.5 21H24" stroke="white" stroke-width="1.5" stroke-linecap="round" stroke-linejoin="round"/>
<path d="M10.8003 18H10.9503" stroke="white" stroke-width="2" stroke-miterlimit="10" stroke-linecap="round" stroke-linejoin="round"/>
</svg>
