<svg width="20" height="20" viewBox="0 0 20 20" fill="none" xmlns="http://www.w3.org/2000/svg">
<path d="M12.9833 9.99993C12.9833 11.6499 11.6499 12.9833 9.99993 12.9833C8.34993 12.9833 7.0166 11.6499 7.0166 9.99993C7.0166 8.34993 8.34993 7.0166 9.99993 7.0166C11.6499 7.0166 12.9833 8.34993 12.9833 9.99993Z" stroke="#03B388" stroke-width="1.5" stroke-linecap="round" stroke-linejoin="round"/>
<path d="M10.0001 16.8918C12.9418 16.8918 15.6834 15.1584 17.5918 12.1584C18.3418 10.9834 18.3418 9.00843 17.5918 7.83343C15.6834 4.83343 12.9418 3.1001 10.0001 3.1001C7.05845 3.1001 4.31678 4.83343 2.40845 7.83343C1.65845 9.00843 1.65845 10.9834 2.40845 12.1584C4.31678 15.1584 7.05845 16.8918 10.0001 16.8918Z" stroke="#03B388" stroke-width="1.5" stroke-linecap="round" stroke-linejoin="round"/>
</svg>
