<svg width="60" height="60" viewBox="0 0 60 60" fill="none" xmlns="http://www.w3.org/2000/svg">
<path d="M5 27.5V22.5C5 13.75 10 10 17.5 10H42.5C50 10 55 13.75 55 22.5V37.5C55 46.25 50 50 42.5 50H30" stroke="#6366F1" stroke-width="4" stroke-miterlimit="10" stroke-linecap="round" stroke-linejoin="round"/>
<path d="M30 36.25C33.4518 36.25 36.25 33.4518 36.25 30C36.25 26.5482 33.4518 23.75 30 23.75C26.5482 23.75 23.75 26.5482 23.75 30C23.75 33.4518 26.5482 36.25 30 36.25Z" stroke="#6366F1" stroke-width="4" stroke-miterlimit="10" stroke-linecap="round" stroke-linejoin="round"/>
<path d="M46.25 23.75V36.25" stroke="#6366F1" stroke-width="4" stroke-miterlimit="10" stroke-linecap="round" stroke-linejoin="round"/>
<path d="M5 38.75H18.3501C19.9501 38.75 21.25 40.0499 21.25 41.6499V44.85" stroke="#6366F1" stroke-width="4" stroke-miterlimit="10" stroke-linecap="round" stroke-linejoin="round"/>
<path d="M8.04993 35.7001L5 38.75L8.04993 41.7999" stroke="#6366F1" stroke-width="4" stroke-miterlimit="10" stroke-linecap="round" stroke-linejoin="round"/>
<path d="M21.25 51.9501H7.89993C6.29993 51.9501 5 50.65 5 49.05V45.8501" stroke="#6366F1" stroke-width="4" stroke-miterlimit="10" stroke-linecap="round" stroke-linejoin="round"/>
<path d="M18.2031 55.0008L21.2531 51.9508L18.2031 48.9008" stroke="#6366F1" stroke-width="4" stroke-miterlimit="10" stroke-linecap="round" stroke-linejoin="round"/>
</svg>
