<svg width="16" height="16" viewBox="0 0 16 16" fill="none" xmlns="http://www.w3.org/2000/svg">
<path d="M11.3335 13.6666H4.66683C2.66683 13.6666 1.3335 12.6666 1.3335 10.3333V5.66665C1.3335 3.33331 2.66683 2.33331 4.66683 2.33331H11.3335C13.3335 2.33331 14.6668 3.33331 14.6668 5.66665V10.3333C14.6668 12.6666 13.3335 13.6666 11.3335 13.6666Z" stroke="white" stroke-width="1.5" stroke-miterlimit="10" stroke-linecap="round" stroke-linejoin="round"/>
<path d="M8 10C9.10457 10 10 9.10457 10 8C10 6.89543 9.10457 6 8 6C6.89543 6 6 6.89543 6 8C6 9.10457 6.89543 10 8 10Z" stroke="white" stroke-width="1.5" stroke-miterlimit="10" stroke-linecap="round" stroke-linejoin="round"/>
<path d="M1.3335 6.00002H2.00016C4.00016 6.00002 4.66683 5.33335 4.66683 3.33335V2.66669" stroke="white" stroke-width="1.5" stroke-miterlimit="10" stroke-linecap="round" stroke-linejoin="round"/>
<path d="M14.6668 6.00002H14.0002C12.0002 6.00002 11.3335 5.33335 11.3335 3.33335V2.66669" stroke="white" stroke-width="1.5" stroke-miterlimit="10" stroke-linecap="round" stroke-linejoin="round"/>
<path d="M1.3335 10H2.00016C4.00016 10 4.66683 10.6667 4.66683 12.6667V13.3333" stroke="white" stroke-width="1.5" stroke-miterlimit="10" stroke-linecap="round" stroke-linejoin="round"/>
<path d="M14.6668 10H14.0002C12.0002 10 11.3335 10.6667 11.3335 12.6667V13.3333" stroke="white" stroke-width="1.5" stroke-miterlimit="10" stroke-linecap="round" stroke-linejoin="round"/>
</svg>
