<svg width="60" height="60" viewBox="0 0 60 60" fill="none" xmlns="http://www.w3.org/2000/svg">
<path d="M23.75 34.375C23.75 36.8 25.625 38.75 27.925 38.75H32.625C34.625 38.75 36.25 37.05 36.25 34.925C36.25 32.65 35.25 31.825 33.775 31.3L26.25 28.675C24.775 28.15 23.775 27.35 23.775 25.05C23.775 22.95 25.4 21.225 27.4 21.225H32.1C34.4 21.225 36.275 23.175 36.275 25.6" stroke="#6366F1" stroke-width="4" stroke-linecap="round" stroke-linejoin="round"/>
<path d="M30 18.75V41.25" stroke="#6366F1" stroke-width="4" stroke-linecap="round" stroke-linejoin="round"/>
<path d="M55 30C55 43.8 43.8 55 30 55C16.2 55 5 43.8 5 30C5 16.2 16.2 5 30 5" stroke="#6366F1" stroke-width="4" stroke-linecap="round" stroke-linejoin="round"/>
<path d="M55 15V5H45" stroke="#6366F1" stroke-width="4" stroke-linecap="round" stroke-linejoin="round"/>
<path d="M42.5 17.5L55 5" stroke="#6366F1" stroke-width="4" stroke-linecap="round" stroke-linejoin="round"/>
</svg>
