<svg width="18" height="18" viewBox="0 0 18 18" fill="none" xmlns="http://www.w3.org/2000/svg">
<path d="M3.16667 2.33203H6.5L8.16667 6.4987L6.08333 7.7487C6.9758 9.55831 8.44039 11.0229 10.25 11.9154L11.5 9.83203L15.6667 11.4987V14.832C15.6667 15.2741 15.4911 15.698 15.1785 16.0105C14.866 16.3231 14.442 16.4987 14 16.4987C10.7494 16.3012 7.68346 14.9208 5.38069 12.618C3.07792 10.3152 1.69754 7.24931 1.5 3.9987C1.5 3.55667 1.67559 3.13275 1.98816 2.82019C2.30072 2.50763 2.72464 2.33203 3.16667 2.33203Z" stroke="#4F46E5" stroke-width="1.5" stroke-linecap="round" stroke-linejoin="round"/>
<path d="M11.5 4.83203C11.942 4.83203 12.366 5.00763 12.6785 5.32019C12.9911 5.63275 13.1667 6.05667 13.1667 6.4987" stroke="#4F46E5" stroke-width="1.5" stroke-linecap="round" stroke-linejoin="round"/>
<path d="M11.5 1.5C12.8261 1.5 14.0979 2.02678 15.0355 2.96447C15.9732 3.90215 16.5 5.17392 16.5 6.5" stroke="#4F46E5" stroke-width="1.5" stroke-linecap="round" stroke-linejoin="round"/>
</svg>
