<svg width="36" height="36" viewBox="0 0 36 36" fill="none" xmlns="http://www.w3.org/2000/svg">
<path d="M14.25 20.625C14.25 22.08 15.375 23.25 16.755 23.25H19.575C20.775 23.25 21.75 22.23 21.75 20.955C21.75 19.59 21.15 19.095 20.265 18.78L15.75 17.205C14.865 16.89 14.265 16.41 14.265 15.03C14.265 13.77 15.24 12.735 16.44 12.735H19.26C20.64 12.735 21.765 13.905 21.765 15.36" stroke="white" stroke-width="1.5" stroke-linecap="round" stroke-linejoin="round"/>
<path d="M18 11.25V24.75" stroke="white" stroke-width="1.5" stroke-linecap="round" stroke-linejoin="round"/>
<path d="M33 18C33 26.28 26.28 33 18 33C9.72 33 3 26.28 3 18C3 9.72 9.72 3 18 3" stroke="white" stroke-width="1.5" stroke-linecap="round" stroke-linejoin="round"/>
<path d="M33 9V3H27" stroke="white" stroke-width="1.5" stroke-linecap="round" stroke-linejoin="round"/>
<path d="M25.5 10.5L33 3" stroke="white" stroke-width="1.5" stroke-linecap="round" stroke-linejoin="round"/>
</svg>
