<svg width="16" height="16" viewBox="0 0 16 16" fill="none" xmlns="http://www.w3.org/2000/svg">
<path d="M6.00016 14.6667H10.0002C13.3335 14.6667 14.6668 13.3334 14.6668 10V6.00004C14.6668 2.66671 13.3335 1.33337 10.0002 1.33337H6.00016C2.66683 1.33337 1.3335 2.66671 1.3335 6.00004V10C1.3335 13.3334 2.66683 14.6667 6.00016 14.6667Z" stroke="#1E293B" stroke-linecap="round" stroke-linejoin="round"/>
<path d="M10.3799 12.3333V9.73328" stroke="#1E293B" stroke-miterlimit="10" stroke-linecap="round" stroke-linejoin="round"/>
<path d="M10.3799 4.96663V3.66663" stroke="#1E293B" stroke-miterlimit="10" stroke-linecap="round" stroke-linejoin="round"/>
<path d="M10.3798 8.43334C11.3371 8.43334 12.1132 7.6573 12.1132 6.70001C12.1132 5.74271 11.3371 4.96667 10.3798 4.96667C9.42252 4.96667 8.64648 5.74271 8.64648 6.70001C8.64648 7.6573 9.42252 8.43334 10.3798 8.43334Z" stroke="#1E293B" stroke-miterlimit="10" stroke-linecap="round" stroke-linejoin="round"/>
<path d="M5.62012 12.3333V11.0333" stroke="#1E293B" stroke-miterlimit="10" stroke-linecap="round" stroke-linejoin="round"/>
<path d="M5.62012 6.26663V3.66663" stroke="#1E293B" stroke-miterlimit="10" stroke-linecap="round" stroke-linejoin="round"/>
<path d="M5.62005 11.0333C6.57735 11.0333 7.35338 10.2573 7.35338 9.29998C7.35338 8.34269 6.57735 7.56665 5.62005 7.56665C4.66276 7.56665 3.88672 8.34269 3.88672 9.29998C3.88672 10.2573 4.66276 11.0333 5.62005 11.0333Z" stroke="#1E293B" stroke-miterlimit="10" stroke-linecap="round" stroke-linejoin="round"/>
</svg>
