<svg width="14" height="10" viewBox="0 0 14 10" fill="none" xmlns="http://www.w3.org/2000/svg">
<path d="M0.223774 8.44168L0.682364 8.90346C0.82669 9.04767 1.01871 9.12712 1.22393 9.12712C1.42904 9.12712 1.62128 9.04767 1.76561 8.90346L6.99687 3.67197L12.2342 8.90927C12.3783 9.05348 12.5705 9.13281 12.7756 9.13281C12.9807 9.13281 13.1731 9.05348 13.3173 8.90927L13.776 8.45034C14.0747 8.15189 14.0747 7.66576 13.776 7.36732L7.54037 1.10927C7.39627 0.965167 7.20425 0.863638 6.99733 0.863638H6.99494C6.78971 0.863638 6.5977 0.965281 6.4536 1.10927L0.223774 7.35036C0.0794477 7.49446 0.000226974 7.69228 0 7.89739C0 8.10261 0.0794477 8.2977 0.223774 8.44168Z" fill="#A8ACB3"/>
</svg>
